<?xml version="1.0" encoding="utf-8"?>
<!-- Generator: Adobe Illustrator 21.0.0, SVG Export Plug-In . SVG Version: 6.00 Build 0)  -->
<svg version="1.1" id="Layer_1" xmlns="http://www.w3.org/2000/svg" xmlns:xlink="http://www.w3.org/1999/xlink" x="0px" y="0px"
	 viewBox="0 0 432 432" style="enable-background:new 0 0 432 432;" xml:space="preserve">
<style type="text/css">
	.st0{fill:#FFFFFF;}
</style>
<g>
	<path class="st0" d="M97.6,221c-0.6-0.2-0.9-0.3-1.2-0.4c-9.4-2.4-18.3-5.9-26.8-10.5c-6.1-3.3-12-7.1-17.3-11.6
		c-4.4-3.8-8.6-7.7-12.5-12c-6.4-7.2-11.7-15.3-15.7-24.1c-2.7-6-4.9-12.1-6.4-18.5c-2.5-10.3-3.3-20.7-2.3-31.3
		c1.6-19,8.2-36.2,19.3-51.6c10-13.8,22.5-24.6,37.9-32c4.5-2.1,9.2-3.9,13.9-5.4c5-1.6,10.2-2.5,15.5-3.1
		c7.1-0.8,14.1-0.6,21.1,0.4C135,22.6,146,27,156.3,33.1c4.5,2.7,8.7,5.6,12.6,9c8.5,7.5,15.4,16.3,20.4,26.5
		c6.2,12.5,9.1,25.7,8.4,39.7c-0.9,18.6-7.6,34.9-20.1,48.8c-6.6,7.3-14.3,13.3-23.2,17.5c-4.4,2.1-9,3.9-13.6,5.2
		c-14,3.8-27.9,3.8-41.7-1.3c-6.6-2.4-12.7-5.9-18.2-10.2c-4.7-3.7-8.9-8-12.5-12.8c-3.9-5.3-7-11.1-9.2-17.3
		c-2.4-7-3.5-14.3-3.3-21.7c0.4-14.5,5.2-27.3,15.2-38c5.5-5.9,12-10.4,19.4-13.7c3.6-1.6,7.4-2.7,11.3-3.4c10.8-2,21-0.5,30.8,4.4
		c9.8,4.9,16.4,12.8,20.7,22.7c2.4,5.4,3.8,11.1,4.1,17c0.4,7.8-1.2,15.1-5.7,21.5c-3,4.2-6.9,7.5-11.6,9.6
		c-2.4,1.1-4.8,2.2-7.3,3.1c-4.1,1.5-8.3,1.8-12.5,1.4c-6-0.6-11.5-2.7-16.3-6.5c-6.6-5.3-10.6-15.3-8-23.4c1.6-5,5.1-8.3,10-10.2
		c4.3-1.6,8.5-1.9,12.9-0.5c1.6,0.5,2.9,1.5,4,2.7c2.3,2.7,4.7,5.5,6.1,8.8c0.1,0.2,0.3,0.4,0.5,0.8c1.9-2.4,2.8-5,2.7-8
		c-0.1-2.8-1-5.4-2.6-7.8c-3.6-5.3-8.5-8.9-14.7-10.3c-4.2-1-8.4-0.7-12.5,0.6c-12.5,3.8-20.1,16.4-20.7,28
		c-0.3,5.7,0.2,11.3,2.3,16.6c1.5,3.9,3.6,7.4,6.3,10.5c7.8,8.8,17.9,12.9,29.4,14.1c4.9,0.5,9.7,0.2,14.5-0.7
		c11.8-2.3,21.3-8.3,28.4-17.9c9.1-12.3,11.9-26,9.6-41c-1.5-9.6-5.3-18.4-11.2-26.1c-9.8-12.7-22.7-20.6-38.5-23.5
		c-6.3-1.2-12.6-1.3-18.9-0.6C91.1,48.3,80,52.6,70.1,59.9C55.5,70.7,46.3,85,42.6,102.8c-2.5,12.2-2,24.4,1.3,36.4
		c2.6,9.4,6.5,18.2,12.5,26c2.7,3.5,5.8,6.7,8.9,9.9c3.5,3.6,7.5,6.6,11.6,9.3c7.4,4.9,15.3,8.5,23.8,10.9
		c8.2,2.4,16.6,3.5,25.1,3.2c4.6-0.1,9.2-0.9,13.8-1.5c5.4-0.7,10.5-2.4,15.5-4.3c9.1-3.6,17.4-8.4,24.9-14.7
		c10-8.4,17.9-18.5,23.6-30.3c4.7-9.7,7.6-19.9,8.6-30.7c0.9-9.9,0.5-19.8-1.4-29.6c-1.7-8.6-4.5-16.7-8.9-24.3
		c-3.2-5.6-2-12.4,3.3-16.1c3-2.1,6.4-3.8,10.4-3c3.4,0.7,6,2.7,7.9,5.4c1.4,2,2.6,4.3,3.7,6.6c3,6.6,5.5,13.4,7.1,20.5
		c0.9,3.9,1.5,7.9,2.3,11.9c0.1,0.6,0.2,1.2,0.3,1.7c0.1,0.1,0.3,0.2,0.4,0.3c0.4-0.5,0.7-1,1.1-1.4c7.1-7.7,15.1-14.2,24-19.7
		c7.4-4.6,15.3-8.2,23.6-10.9c12.4-4,25.2-5.7,38.2-4.8c6.4,0.4,12.6,1.5,18.8,3.2c9.9,2.6,19.2,6.7,27.8,12.2
		c10.2,6.6,18.9,14.7,26.2,24.4c4.9,6.5,9.1,13.4,12.2,20.9c2,4.9,3.8,10,5.2,15.1c3,10.5,4,21.3,3.3,32.2
		c-0.4,6.4-1.5,12.7-3.2,18.9c-3,10.8-7.9,20.6-14.8,29.4c-6.2,8-13.8,14.6-22.4,19.9c-4.9,3.1-10,5.9-15.4,8
		c-6.1,2.4-12.5,4.2-19,5.1c-6.7,1-13.5,1.2-20.2,0.6c-5.7-0.5-11.4-1.7-16.9-3.4c-11-3.4-20.9-8.9-29.5-16.6
		c-8.5-7.5-14.9-16.5-19.4-26.9c-2.3-5.4-4.1-11-5.1-16.8c-1.6-8.9-1.8-17.8-0.3-26.7c1.8-11.1,5.9-21.2,12.3-30.4
		c5.4-7.7,12.3-13.8,20.4-18.5c6.1-3.6,12.6-6.1,19.6-7.6c8.7-1.9,17.5-2,26.3-0.3c12.8,2.5,23.6,8.6,32.6,17.8
		c5.3,5.3,9.1,11.7,11.7,18.7c3.3,8.7,4.5,17.6,3.4,26.7c-2.2,17.4-10.7,30.8-26.4,39c-7.8,4.1-16.4,5-25.1,4c-6-0.7-11.7-2.3-17-5
		c-7-3.6-12.6-8.7-16-15.9c-1.9-4.1-2.8-8.5-2.5-13.1c0.1-3.1,0.4-6.2,1-9.3c1.3-6.9,4.9-12.5,10.1-17.1c5.7-5,12.4-7.7,20-6.8
		c6.3,0.8,11.8,3.1,15,9c2.4,4.2,2.5,8.7,1.2,13.4c-1,3.5-2.8,6.6-5.7,9c-0.9,0.7-1.9,1.3-3,1.6c-4,1.1-8,1.7-12.1,1.2
		c-0.1,0-0.3,0.1-0.7,0.1c0.4,0.8,0.7,1.6,1.2,2.2c3.1,4.7,7.8,6.1,13.1,5.6c5.4-0.4,10.3-2.5,14.3-6.2c5.8-5.4,8.3-12.2,7.7-20
		c-0.8-11.4-6.7-19.7-16.4-25.6c-5.7-3.4-11.8-5.5-18.5-5.7c-8.4-0.2-15.8,2.4-22.6,7.1c-8.6,6-14.5,14.1-18.2,24
		c-2.4,6.4-3.5,13.1-2.8,19.9c1,9.6,4.5,18.3,10.4,25.9c6.1,7.8,14,13.4,23.1,17.1c9.4,3.7,19.1,5,29.1,3.6
		c18.4-2.6,33-11.6,43.6-27c3.8-5.5,6.6-11.6,8.6-18c2.9-9.1,3.8-18.5,2.7-28c-2.4-20.2-11.8-36.6-28-48.9
		c-8.3-6.3-17.6-10.7-27.6-13.3c-9.6-2.5-19.3-3.4-29.1-2.2c-6.7,0.9-13.2,2.6-19.5,5.1c-8.9,3.5-17,8.3-24.2,14.5
		c-9.4,8.1-16.8,17.8-22.1,29.1c-3.4,7.3-5.7,14.9-6.9,22.8c-1.3,8.2-1.4,16.4-0.4,24.6c0.9,7.1,2.6,14.1,5.1,20.8
		c5.2,13.6,13.1,25.5,23.9,35.3c8.6,7.9,18.5,13.7,29.2,18.2c6.5,2.7,13.3,4.7,20.2,5.7c3.6,0.5,7.3,0.7,11,0.8
		c7.4,0.2,12.9,6.4,12.1,13.8c-0.3,2.3-0.4,4.5-1.7,6.5c-2.2,3.3-5.5,4.8-9.3,5.3c-1.9,0.3-3.9,0.2-5.9,0.1
		c-7.9-0.7-15.8-1.9-23.4-4.3c-5.6-1.8-11.1-4.2-16.7-6.3c-0.4-0.1-0.7-0.3-1.4-0.5c0.2,0.6,0.3,1.1,0.4,1.6
		c2.3,6.6,3.9,13.4,4.8,20.3c1.5,10.3,1.6,20.6,0.2,31c-0.9,6.3-2.3,12.4-4.2,18.4c-2.8,8.9-6.8,17.2-11.9,24.9
		c-3.2,4.9-6.9,9.4-11,13.6c-4.3,4.5-8.9,8.5-13.9,12.1c-6.3,4.5-13.1,8.2-20.4,11.1c-8.2,3.3-16.7,5.6-25.5,6.6
		c-7.2,0.9-14.4,1.3-21.6,0.4c-5.2-0.6-10.4-1.3-15.5-2.3c-3.7-0.8-7.4-2.1-11-3.3c-8.1-2.7-15.7-6.6-22.8-11.4
		c-12.6-8.7-22.6-19.7-29.4-33.5c-3.5-7.1-5.9-14.6-7.3-22.5c-1.7-10.1-2-20.3-0.5-30.4c1.8-12.5,6.4-24,13.5-34.6
		c3.6-5.4,7.8-10.2,12.5-14.6c10.6-9.8,22.9-16.2,36.9-19.4c6.7-1.5,13.5-2.1,20.3-1.6c4.3,0.3,8.5,0.8,12.7,1.7
		c10.5,2.4,20.1,6.5,28.9,12.9c9.4,6.8,16.9,15.3,22.4,25.6c3.9,7.4,6.2,15.3,7,23.6c0.7,6.9,0.3,13.7-1.1,20.5
		c-2.1,9.8-6.2,18.8-12.3,26.8c-8.3,10.8-19.2,17.8-32.1,21.7c-5.9,1.8-11.9,2.3-18.1,2c-5.4-0.3-10.6-1.2-15.6-3.1
		c-14.9-5.5-26.2-14.9-32.3-29.8c-3.8-9.4-4.8-19.1-2-29c1.6-5.7,4.3-11,7.9-15.8c3.5-4.6,7.6-8.6,12.4-11.8
		c5.9-3.8,12.3-6.1,19.4-6.1c4.5,0,8.8,1,12.7,3.2c4.3,2.4,8.6,4.9,11.9,8.7c7,8,10.1,17.2,7.6,27.8c-1.7,7.3-6.1,12.7-13,15.8
		c-5.1,2.3-10.1,1.6-14.8-1.4c-4.5-2.9-7.6-7-8.6-12.3c-0.2-1.2-0.2-2.5,0.1-3.6c1-3.8,2.4-7.5,4.8-10.7c0.6-0.8,0-1.1-0.6-1.1
		c-3.1-0.1-6.1,0.6-8.5,2.8c-5.5,4.8-7.1,11.1-6.6,18c0.6,9.3,5.7,15.8,13.9,19.9c9.9,4.9,19.7,4.1,29.4-0.8c3.9-2,7.4-4.5,10.5-7.6
		c3.5-3.6,6.2-7.8,7.7-12.6c4.9-15.1,1.4-28.7-7.4-41.4c-4.4-6.4-10.2-11.4-17.3-14.9c-3.4-1.7-7-2.8-10.7-3.6
		c-6-1.4-12.1-1.5-18.1-0.6c-8.4,1.2-16,4.4-22.9,9.2c-9.4,6.5-16.3,15-20.7,25.5c-3.8,9.1-5.4,18.6-4.7,28.5
		c1.2,15.6,7.5,28.9,18.1,40.2c5.6,5.9,12.1,10.6,19.3,14.2c4.9,2.5,10,4.2,15.4,5.5c17,4,33.2,1.5,48.7-6.2
		c6.1-3,11.7-6.9,16.8-11.4c8.7-7.8,15.7-16.9,20.2-27.8c3.5-8.5,5.6-17.3,6.1-26.5c1.2-20.7-4.2-39.4-16.4-56.2
		c-8.1-11.2-18.5-19.9-30.9-26c-4.5-2.2-9.3-4.2-14.1-5.8c-4.2-1.4-8.6-2.1-13-2.9c-6.8-1.3-13.7-1.4-20.6-0.9
		c-10.8,0.8-21.2,3.4-31.1,7.9c-7,3.2-13.6,7.1-19.7,11.8c-4.5,3.4-8.6,7.2-12.4,11.4c-3.7,4.1-7,8.6-9.8,13.4
		c-2.3,4-7.5,6.2-12.1,5.4c-3.8-0.7-6.9-2.7-9.2-5.5c-3.1-3.8-2.7-8.2-0.9-12.4c0.9-2.2,2.2-4.4,3.7-6.3c3.6-4.6,7.3-9.3,11.3-13.6
		c4-4.4,8.5-8.3,13.4-11.9C96.4,222,96.9,221.6,97.6,221z M194.2,199.6c7.3,1.5,14.5,3.6,21.5,6.6c-2.1-7.5-4.1-14.8-6.1-21.8
		C204.6,189.2,199.5,194.4,194.2,199.6z"/>
</g>
</svg>
