<?xml version="1.0"?>
<svg xmlns="http://www.w3.org/2000/svg" height="512px" viewBox="-93 0 511 512" width="512px"><path d="m324.214844 48c-1.726563-1.667969-4.148438-2.410156-6.511719-1.988281l-60.109375 10.609375c-3.195312.5625-5.667969 3.121094-6.117188 6.335937l-3.242187 23.039063v.015625l-5.355469 38.089843c-1.476562-.582031-3.023437-1.011718-4.636718-1.238281-11.113282-1.554687-21.429688 6.210938-22.992188 17.324219-1.5625 11.117188 6.207031 21.429688 17.324219 22.992188.960937.136718 1.921875.203124 2.878906.203124 4.386719 0 8.640625-1.414062 12.207031-4.101562 4.34375-3.273438 7.148438-8.039062 7.90625-13.421875.230469-1.644531 6.785156-52.582031 6.785156-52.582031l44.644532-8.292969-2.554688 18.175781c-1.632812-.703125-3.371094-1.222656-5.210937-1.484375-5.382813-.757812-10.742188.628907-15.085938 3.902344-4.34375 3.269531-7.152343 8.039063-7.910156 13.421875-.753906 5.386719.628906 10.742188 3.902344 15.085938 3.269531 4.34375 8.039062 7.152343 13.421875 7.910156.957031.132812 1.910156.199218 2.851562.199218 9.976563 0 18.714844-7.367187 20.144532-17.523437l9.875-70.238281c.335937-2.375-.492188-4.769532-2.214844-6.433594zm-83.492188 95.769531c-.199218 1.421875-.941406 2.679688-2.085937 3.539063-1.144531.863281-2.550781 1.230468-3.976563 1.03125-2.929687-.414063-4.976562-3.132813-4.566406-6.0625.375-2.679688 2.679688-4.621094 5.3125-4.621094.246094 0 .496094.019531.75.050781 1.417969.203125 2.675781.941407 3.539062 2.085938.863282 1.144531 1.226563 2.558593 1.027344 3.976562zm60.984375-21.183593c-.410156 2.929687-3.128906 4.976562-6.0625 4.566406-1.417969-.199219-2.675781-.941406-3.539062-2.085938-.859375-1.144531-1.226563-2.554687-1.027344-3.976562.203125-1.417969.941406-2.675782 2.085937-3.539063.941407-.707031 2.0625-1.078125 3.21875-1.078125.25 0 .503907.015625.757813.050782 2.929687.414062 4.980469 3.128906 4.566406 6.0625zm7.492188-53.253907-44.648438 8.289063 1.011719-7.183594 44.585938-7.871094zm0 0" fill="#FFFFFF"/><path d="m20.867188 194.121094c1.855468 0 3.742187-.257813 5.613281-.792969 5.226562-1.503906 9.554687-4.949219 12.1875-9.707031 2.632812-4.757813 3.257812-10.253906 1.753906-15.480469l-11.773437-40.980469c-1.144532-3.980468-5.296876-6.28125-9.273438-5.136718-3.980469 1.144531-6.277344 5.296874-5.132812 9.277343l6.359374 22.125c-1.777343.023438-3.578124.257813-5.363281.769531-10.789062 3.101563-17.046875 14.402344-13.945312 25.1875 2.5625 8.917969 10.726562 14.738282 19.574219 14.738282zm-1.492188-25.519532c.496094-.140624.992188-.207031 1.480469-.207031 2.332031 0 4.484375 1.53125 5.160156 3.882813.398437 1.378906.230469 2.828125-.460937 4.082031-.695313 1.253906-1.835938 2.164063-3.214844 2.558594-2.84375.820312-5.820313-.832031-6.640625-3.675781-.816407-2.84375.832031-5.824219 3.675781-6.640626zm0 0" fill="#FFFFFF"/><path d="m300.917969 251.054688c0-.003907-.003907-.003907-.003907-.007813l-22.230468-36.378906c-2.160156-3.53125-6.773438-4.644531-10.304688-2.484375-3.53125 2.15625-4.644531 6.769531-2.488281 10.304687l12.007813 19.644531c-1.707032.492188-3.378907 1.195313-4.96875 2.164063-9.574219 5.855469-12.605469 18.410156-6.753907 27.988281 3.835938 6.273438 10.542969 9.734375 17.40625 9.734375 3.617188 0 7.273438-.960937 10.582031-2.980469 9.355469-5.71875 12.4375-17.824218 7.121094-27.308593-.109375-.230469-.230468-.453125-.367187-.675781zm-14.570313 15.195312c-2.527344 1.542969-5.835937.742188-7.378906-1.78125-1.542969-2.527344-.746094-5.835938 1.78125-7.378906.871094-.53125 1.835938-.785156 2.789062-.785156 1.808594 0 3.578126.914062 4.585938 2.566406 1.542969 2.527344.746094 5.835937-1.777344 7.378906zm0 0" fill="#FFFFFF"/><path d="m111.261719 416.9375c-6.886719 0-12.492188 5.601562-12.492188 12.492188v22.984374c0 6.890626 5.605469 12.492188 12.492188 12.492188h56.964843c6.886719 0 12.492188-5.601562 12.492188-12.492188v-22.984374c0-6.890626-5.605469-12.492188-12.492188-12.492188zm54.464843 32.980469h-51.964843v-17.992188h51.964843zm0 0" fill="#FFFFFF"/><path d="m229.273438 294.011719c14.453124-19.21875 19.316406-43.382813 13.347656-66.300781-5.835938-22.394532-21.054688-40.035157-42.851563-49.667969-9.222656-4.078125-18.945312-6.164063-28.988281-7.199219v-77.539062l13.375-28.195313c.023438-.046875.039062-.097656.058594-.148437h21.632812c4.140625 0 7.496094-3.355469 7.496094-7.496094 0-4.136719-3.355469-7.492188-7.496094-7.492188h-20.96875v-16.992187h20.96875c4.140625 0 7.496094-3.355469 7.496094-7.492188 0-4.140625-3.355469-7.496093-7.496094-7.496093h-21.035156c-.675781-10.03125-9.027344-17.992188-19.226562-17.992188h-51.683594c-10.199219 0-18.554688 7.960938-19.230469 17.992188h-21.035156c-4.136719 0-7.492188 3.355468-7.492188 7.496093 0 4.136719 3.355469 7.492188 7.492188 7.492188h20.96875v16.992187h-20.96875c-4.136719 0-7.492188 3.355469-7.492188 7.492188 0 4.140625 3.355469 7.496094 7.492188 7.496094h21.632812c.023438.050781.039063.101562.0625.148437l13.375 28.199219v23.277344c0 4.140624 3.355469 7.496093 7.496094 7.496093s7.496094-3.355469 7.496094-7.496093v-17.371094h32.089843v205.132812c-5.023437-1.777344-10.421874-2.753906-16.046874-2.753906s-11.023438.976562-16.046876 2.753906v-141.289062c0-4.140625-3.351562-7.496094-7.492187-7.496094s-7.496094 3.355469-7.496094 7.496094v8.101562c-9.34375 1-18.59375 2.957032-27.472656 6.882813-21.796875 9.632812-37.015625 27.273437-42.851563 49.667969-5.96875 22.917968-1.101562 47.082031 13.347657 66.300781 5.390625 7.164062 5.039062 11.933593-7.679688 24.449219-26.074219 25.65625-40.316406 58.882812-39.0625 91.15625 1.0625 27.394531 13.273438 51.683593 35.3125 70.242187 20.039063 16.871094 47.148438 27.59375 78.390625 31.007813 6.949219.757812 13.96875 1.132812 20.980469 1.132812 21.972656 0 43.871094-3.683594 63.289063-10.777344 24.328124-8.890625 43.761718-23.917968 56.195312-43.460937 2.222656-3.492188 1.191406-8.125-2.300781-10.347657-3.488281-2.222656-8.125-1.191406-10.347657 2.300782-10.648437 16.738281-27.484374 29.679687-48.691406 37.425781-57.5 21.003906-117.90625 6.46875-147.863281-18.75-18.722656-15.765625-29.09375-36.289063-29.988281-59.351563-1.070313-27.65625 11.863281-57.523437 34.597656-79.894531 8.507812-8.367187 24.339844-23.945312 9.148438-44.148437-11.691407-15.539063-15.632813-35.042969-10.824219-53.507813 4.65625-17.875 16.878906-31.988281 34.40625-39.738281 6.675781-2.953125 13.921875-4.574219 21.410156-5.484375v126.675781c-10.507813 8.855469-17.203125 22.101563-17.203125 36.890625 0 26.601563 21.640625 48.238281 48.242188 48.238281 26.597656 0 48.238281-21.636718 48.238281-48.238281 0-14.789062-6.691407-28.035156-17.203125-36.890625v-127.03125c8.109375.9375 15.757812 2.671875 22.925781 5.839844 17.53125 7.75 29.75 21.863281 34.40625 39.738281 4.8125 18.464844.867187 37.96875-10.820313 53.507813-15.195312 20.203125.640626 35.78125 9.144532 44.148437 22.675781 22.3125 34.699218 51.550781 32.984375 80.230469-.246094 4.132812 2.902343 7.679688 7.035156 7.929688 4.144531.234374 7.683594-2.90625 7.929687-7.039063 1.972657-32.996094-11.671874-66.460937-37.433593-91.808594-12.714844-12.511719-13.066407-17.28125-7.675781-24.445312zm-108.285157-209.789063-11.390625-24.011718v-40.917969c0-2.371094 1.933594-4.300781 4.304688-4.300781h51.683594c2.371093 0 4.304687 1.929687 4.304687 4.300781v40.917969l-11.390625 24.011718zm52.003907 265.609375c0 18.335938-14.914063 33.25-33.25 33.25-18.332032 0-33.25-14.914062-33.25-33.25 0-18.332031 14.917968-33.25 33.25-33.25 18.335937 0 33.25 14.917969 33.25 33.25zm0 0" fill="#FFFFFF"/></svg>
