<?xml version="1.0" encoding="utf-8"?>
<!-- Generator: Adobe Illustrator 21.0.0, SVG Export Plug-In . SVG Version: 6.00 Build 0)  -->
<svg version="1.1" id="Layer_1" xmlns="http://www.w3.org/2000/svg" xmlns:xlink="http://www.w3.org/1999/xlink" x="0px" y="0px"
	 viewBox="0 0 432 432" style="enable-background:new 0 0 432 432;" xml:space="preserve">
<style type="text/css">
	.st0{fill:#FFFFFF;}
</style>
<g>
	<path class="st0" d="M216.7,6.3c3.4,1.4,4.1,2.4,4.1,6.3c0,5.8,0,11.7,0,17.5c0,2.2-1.3,4-3.3,4.7c-1.9,0.6-4.1,0.1-5.3-1.5
		c-0.6-0.9-1.1-2.1-1.1-3.1c-0.1-6.3-0.1-12.6,0-18.8c0-2.7,1.7-4.2,4.1-5C215.8,6.3,216.2,6.3,216.7,6.3z"/>
	<path class="st0" d="M216.2,259.7c-9.3,0-18.5-0.1-27.8,0c-3.3,0-5.8-2-5.8-5.7c0.1-5.7-0.6-11.3-3.1-16.5c-2-4.3-5-7.9-8.2-11.4
		c-7.8-8.6-15.5-17.2-22.6-26.4c-7.4-9.6-13.2-19.9-16.5-31.6c-2.8-9.9-3.8-20-3.1-30.3c2.3-34,25.1-65.2,59.9-76.6
		c11.1-3.6,22.4-5,34-4c38.2,3.2,69.6,30.6,78,67.7c2.1,9.1,2.6,18.3,1.7,27.6c-1.6,16.9-7.9,31.9-18.1,45.4
		c-7.2,9.4-14.9,18.4-22.8,27.1c-3.2,3.6-6.4,7.2-8.6,11.5c-2.5,4.9-3.2,10.2-3.5,15.6c0,0.8,0,1.6,0,2.3c0,3.2-2,5.2-5.2,5.2
		C235.1,259.7,225.6,259.7,216.2,259.7z M192.6,250c0,0,0.2,0,0.4,0c15.4,0,30.7,0,46.1,0c1,0,1.1-0.4,1.1-1.2
		c0.3-4.8,1.1-9.5,2.9-14c2.2-5.4,5.8-9.9,9.7-14.2c8.7-9.7,17.5-19.5,25.2-30.1c14.2-19.7,18.8-41.4,13.1-64.9
		c-9.9-40.9-51.3-67.2-94-56.6c-32.6,8.1-56.1,36.3-58.4,69.8c-0.9,12.9,1.4,25.3,6.6,37.1c3.6,8,8.6,15.1,14.1,21.8
		c6.8,8.2,13.9,16.1,20.9,24.1c4.1,4.7,8,9.6,9.7,15.8C191.2,241.6,191.8,245.7,192.6,250z"/>
	<path class="st0" d="M142.5,409.8c-0.4-0.5-0.8-0.9-1-1.4c-6-9.6-12-19.1-18-28.7c-2.7-4.3-2.6-8.5,0.1-12.8
		c5.7-9.1,11.4-18.2,17.1-27.2c0.5-0.8,0.5-1.2-0.4-1.7c-2.5-1.3-5-2.6-7.5-3.9c-0.3-0.1-0.5-0.3-1-0.7c2.6-0.4,4.8-0.7,7.1-1
		c9.2-1.3,18.4-2.6,27.6-3.9c0.9-0.1,1.3,0.2,1.6,0.9c4.1,9.7,8.2,19.4,12.4,29.1c0.1,0.3,0.2,0.5,0.3,1c-0.5-0.2-0.8-0.3-1-0.4
		c-2.5-1.3-5-2.6-7.4-4c-0.9-0.5-1.4-0.4-1.9,0.5c-7.8,12.5-15.6,24.9-23.3,37.3c-1.2,1.9-2.4,3.9-3.6,5.8
		c-2.1,3.3-2.6,6.7-0.9,10.3c0.1,0.1,0.1,0.3,0.1,0.5C142.6,409.6,142.6,409.6,142.5,409.8z"/>
	<path class="st0" d="M271.9,294.4c-0.6,1.5-1.1,2.7-1.6,3.9c-3.7,8.7-7.4,17.4-11,26.1c-0.4,0.8-0.7,1.2-1.7,1
		c-11.2-1.6-22.4-3.1-33.5-4.7c-0.3,0-0.5-0.1-1.1-0.2c0.4-0.3,0.7-0.5,0.9-0.6c2.4-1.3,4.9-2.6,7.4-3.9c0.9-0.5,1.1-0.9,0.5-1.9
		c-9-14.3-17.9-28.5-26.8-42.8c-2.1-3.4-5-5.6-9.1-6.2c-0.1,0-0.2-0.1-0.7-0.3c0.8-0.1,1.3-0.2,1.8-0.2c11.9,0,23.9,0,35.8,0
		c5.2,0,9.1,2.2,11.9,6.7c5.5,9,11.2,17.9,16.8,26.9c0.6,0.9,1,1.2,2,0.6c2.5-1.4,5-2.7,7.5-4C271.2,294.6,271.4,294.6,271.9,294.4z
		"/>
	<path class="st0" d="M304.8,379.3c-0.2,0.4-0.4,0.9-0.7,1.3c-6,9.6-12,19.1-18,28.7c-2.7,4.3-6.5,6.3-11.5,6.3c-11.3,0-22.7,0-34,0
		c-2.1,0-2.1,0-2.1,2c0,2.4,0,4.8,0,7.2c0,0.2,0,0.5-0.1,0.9c-0.4-0.3-0.6-0.5-0.8-0.7c-7-8.1-14.1-16.2-21.1-24.3
		c-0.6-0.7-0.7-1.1,0-1.9c7.1-8.2,14.2-16.4,21.3-24.6c0.1-0.2,0.4-0.3,0.8-0.6c0,1.3,0,2.4,0,3.5c0,1.8,0,3.7,0,5.5
		c0,0.9,0.3,1.3,1.2,1.3c0.2,0,0.4,0,0.6,0c17.8,0,35.5,0,53.3,0c4.3,0,7.8-1.2,10.6-4.6c0.1-0.1,0.2-0.1,0.3-0.2
		C304.7,379.2,304.8,379.2,304.8,379.3z"/>
	<path class="st0" d="M280.3,327.6c0.4,0.6,0.7,1.1,1,1.5c7.2,11.5,14.4,23,21.6,34.5c3.1,5,0.8,12.2-5,14.8
		c-1.7,0.8-3.7,1.2-5.5,1.3c-6,0.2-12.1,0.1-18.1,0c-0.5,0-1.3-0.5-1.6-1c-4.4-6.9-8.7-13.9-13.1-20.8c-2.8-4.5-5.6-8.9-8.4-13.4
		c-0.2-0.3-0.3-0.5-0.6-1c0.6,0,0.9,0.1,1.2,0.1c6.5,0.9,12.9,1.8,19.4,2.8c1,0.1,1.3-0.4,1.6-1.1c2.4-5.6,4.7-11.2,7.1-16.8
		C280,328.3,280.1,328.1,280.3,327.6z"/>
	<path class="st0" d="M188.5,325.9c-1-2.4-2-4.6-2.9-6.9c-1.5-3.6-3-7.1-4.5-10.7c-0.4-0.9-0.8-1.2-1.9-1c-6.4,1-12.9,1.9-19.4,2.8
		c-0.2,0-0.5,0-0.9,0c0.9-1.4,1.6-2.7,2.4-3.9c6.6-10.5,13.2-21.1,19.8-31.6c2.5-4,7.6-6.2,12.3-5.4c3.9,0.7,6.9,2.7,9,6.1
		c2.7,4.5,5.5,8.9,8.3,13.3c0.5,0.8,0.6,1.4,0.1,2.2c-7.2,11.5-14.4,23.1-21.7,34.6C188.9,325.5,188.8,325.6,188.5,325.9z"/>
	<path class="st0" d="M203.1,384.3c-2.5,2.9-4.9,5.6-7.2,8.3c-1.9,2.2-3.7,4.3-5.6,6.5c-0.7,0.7-0.7,1.2,0,1.9
		c4.1,4.7,8.2,9.4,12.3,14.1c0.1,0.1,0.2,0.3,0.4,0.6c-0.2,0.1-0.4,0.2-0.6,0.2c-14.7,0-29.4,0-44.1,0c-5.2,0-9.6-3.1-11.1-7.8
		c-1-2.9-0.7-5.8,1-8.5c3-4.9,6-9.7,9.1-14.5c0.3-0.4,1-0.8,1.6-0.8c14.5,0,29,0,43.5,0C202.5,384.2,202.6,384.3,203.1,384.3z"/>
	<path class="st0" d="M215.4,346.8c4.6,0,9.2,0,13.8,0c1.2,0,1.5,0.4,1.5,1.5c-0.1,2.7,0.1,5.5-0.1,8.2c-0.8,8-8.2,13.8-16.4,13
		c-6.5-0.6-11.1-3.9-13.3-10.2c-0.4-1.3-0.6-2.6-0.6-4c-0.1-2.4,0-4.8-0.1-7.2c0-1,0.3-1.2,1.3-1.2
		C206.1,346.8,210.7,346.8,215.4,346.8z"/>
	<path class="st0" d="M308,85.4c0-1.1,0.7-2.6,2.3-3.5c5.5-3.2,11-6.4,16.6-9.6c2.3-1.3,5.2-0.5,6.5,1.8c1.4,2.3,0.7,5.2-1.7,6.6
		c-5.5,3.2-11,6.4-16.5,9.5C311.9,92.1,308,89.8,308,85.4z"/>
	<path class="st0" d="M267,44.9c0.2-0.6,0.4-1.6,0.9-2.3c3-5.3,6.1-10.7,9.2-16c1.5-2.6,4.4-3.4,6.8-2c2.4,1.4,3,4.3,1.5,6.8
		c-3.1,5.4-6.2,10.7-9.3,16.1c-1,1.8-2.6,2.7-4.7,2.5c-2-0.2-3.5-1.3-4.1-3.3C267.2,46.2,267.1,45.7,267,44.9z"/>
	<path class="st0" d="M124,85.5c0,4.4-3.9,6.6-7.3,4.7c-4.2-2.4-8.4-4.8-12.6-7.2c-1.2-0.7-2.5-1.4-3.7-2.1
		c-2.5-1.5-3.2-4.3-1.9-6.6c1.3-2.3,4.2-3.1,6.7-1.7c5.4,3.1,10.9,6.3,16.3,9.4C123.2,82.8,123.9,84.3,124,85.5z"/>
	<path class="st0" d="M165,45.2c-0.2,2.2-1.6,4-3.6,4.6c-2.2,0.6-4.4-0.2-5.6-2.3c-2.6-4.5-5.2-9-7.8-13.5c-0.6-1-1.2-2-1.7-3
		c-1.2-2.4-0.5-5.2,1.8-6.5c2.3-1.3,5.1-0.7,6.5,1.6c3.3,5.5,6.4,11.1,9.6,16.7C164.7,43.6,164.8,44.4,165,45.2z"/>
	<path class="st0" d="M215.3,345.5c-4.9,0-9.7,0-14.6,0c-0.5,0-1.1,0-1.6,0c-1.3-0.1-2.2-0.9-2.1-2c0-1.1,0.9-1.9,2.2-2
		c0.7,0,1.5,0,2.2,0c1.6,0,1.7,0,1.7-1.6c0-3,0-6,0-9c0-2,1.1-3.2,2.9-3.2c1.8,0,2.9,1.2,3,3.1c0,3.1,0,6.2,0,9.3
		c0,1,0.3,1.5,1.4,1.4c3.4-0.1,6.9,0,10.3,0c1,0,1.4-0.3,1.4-1.3c-0.1-3.1,0-6.3,0-9.4c0-1.9,1.1-3.1,2.8-3.1c1.8,0,3,1.2,3,3.1
		c0,3.1,0,6.2,0,9.3c0,1.1,0.3,1.6,1.5,1.5c0.7-0.1,1.4,0,2.1,0c1.5,0,2.6,0.9,2.5,2.1c0,1.2-1,2-2.5,2
		C226,345.5,220.6,345.5,215.3,345.5L215.3,345.5z M222.8,332.6C222.8,332.6,222.8,332.6,222.8,332.6c0,0.8,0,1.5,0,2.3
		s0.4,1.1,1.1,0.9c1-0.2,2.5,0.7,2.8-0.7c0.4-1.7,0.1-3.5,0-5.2c-0.1-1-1.1-1.7-2.1-1.5c-1.1,0.1-1.7,0.8-1.7,1.9
		C222.8,331.1,222.8,331.9,222.8,332.6z M208,332.6C208,332.6,208,332.6,208,332.6c0-0.8,0-1.5,0-2.3c-0.1-1.1-0.9-1.9-2-1.9
		c-1.1,0-1.9,0.8-1.9,1.9c0,1.5,0,3,0,4.5c0,0.7,0.3,1,1,1c3,0.2,3,0.2,2.9-2.8C207.9,333,208,332.8,208,332.6z"/>
	<path class="st0" d="M218.6,370.6c0,0.8,0,1.4,0,2c0,3.7,0,7.5,0,11.2c0,2-1.2,3.2-3.1,3.3c-1.9,0-3.2-1.2-3.2-3.2
		c-0.1-4.1,0-8.3,0-12.4c0-0.6,0.1-0.9,0.8-0.9C214.8,370.6,216.6,370.6,218.6,370.6z"/>
	<path class="st0" d="M235.4,146.9c-7.5,4-13.8,1.7-19.3-4c-1,0.8-1.8,1.4-2.6,2.1c-4.7,4.2-10,4.9-15.8,2.5
		c-0.4-0.2-0.8-0.3-1.3-0.5c0.2,0.5,0.3,0.8,0.4,1.1c5.4,11.4,9.4,23.1,11.4,35.5c1.1,7,1.9,14.1,2.3,21.2
		c0.5,9.3,0.6,18.6,0.8,27.9c0.1,2.1-1.2,3.8-3.1,4.5c-1.8,0.7-3.9,0.2-5.2-1.2c-1-1-1.3-2.3-1.4-3.7c0-3.2,0.1-6.4-0.1-9.7
		c-0.4-8.8-0.6-17.6-1.3-26.4c-1.6-18.6-7.4-35.9-16.2-52.3c-0.9-1.6-1.7-3.1-2.6-4.7c-1.1-2-0.9-4.2,0.4-5.8
		c1.3-1.6,3.5-2.1,5.6-1.3c3.4,1.4,6.7,3.1,10.1,4.5c1.7,0.7,3.5,1.4,5.2,2c1.5,0.5,3,0,4.2-1c1.8-1.5,3.6-2.9,5.4-4.4
		c2.3-2,4.8-2,7.1,0c1.6,1.4,3.3,2.7,4.9,4.1c1.8,1.6,3.7,2,5.9,1.1c1.9-0.7,3.7-1.6,5.5-2.4c2.9-1.3,5.7-2.6,8.6-3.8
		c2.2-0.9,4.4-0.4,5.8,1.3c1.4,1.7,1.5,3.9,0.3,6c-8.2,14.4-14.5,29.6-17.1,46.1c-1.1,7.2-1.8,14.5-2.3,21.8
		c-0.5,8.3-0.4,16.5-0.6,24.8c-0.1,2.5-1.2,4.2-3.2,5c-1.9,0.7-4.1,0.2-5.3-1.5c-0.6-0.9-1.1-2.2-1.1-3.4c0.2-10.5,0.4-21,0.9-31.5
		c0.6-11.9,2.6-23.5,6.4-34.8c2-6,4.6-11.8,6.9-17.7c0.2-0.4,0.3-0.8,0.5-1.2C235.5,147.1,235.4,147,235.4,146.9z"/>
	<path class="st0" d="M214.9,77c0.5,0,1.4,0,2.2,0.2c2.4,0.5,4,2.8,3.7,5.2c-0.3,2.5-2.3,4.2-4.9,4.4c-3,0.2-6,0.3-9,0.8
		c-12.1,1.9-22.4,7.5-30.9,16.4c-4.6,4.8-8.2,10.3-10.9,16.4c-0.8,2-2.3,3.1-4.4,3.1c-1.8,0.1-3.3-0.8-4.3-2.4
		c-0.9-1.6-0.8-3.2-0.1-4.8c6.6-14.9,17.2-25.9,31.9-33C196.6,79.2,205.4,77.3,214.9,77z"/>
	<path class="st0" d="M151,144.5c0.1-1.2,0-2.4,0.2-3.5c0.4-2.5,2.6-4,5.3-3.8c2.3,0.2,4.2,2.2,4.2,4.6c0.1,7.5,1.4,14.7,4.3,21.6
		c1.1,2.6-0.1,5.4-2.6,6.4c-2.5,1-5.2-0.2-6.3-2.8C153.1,159.8,151.4,152.3,151,144.5z"/>
</g>
</svg>
